<svg xmlns="http://www.w3.org/2000/svg" width="20" height="20" viewBox="0 0 16 17" fill="none">
<g clip-path="url(#clip0_160_1663)">
<path fill-rule="evenodd" clip-rule="evenodd" d="M8 0.715332C12.418 0.715332 16 4.29736 16 8.71533C16 13.1333 12.418 16.7153 8 16.7153C3.58203 16.7153 0 13.1333 0 8.71533C0 4.29736 3.58203 0.715332 8 0.715332ZM6.89063 4.68929H7.86849C8.04688 4.68929 8.19401 4.83643 8.19401 5.01481V8.78304H11.6328C11.8125 8.78304 11.9583 8.93018 11.9583 9.10856V10.0864C11.9583 10.2661 11.8112 10.4119 11.6328 10.4119H6.5638V5.01481C6.5638 4.83512 6.71094 4.68929 6.89063 4.68929ZM8 2.53174C11.4154 2.53174 14.1836 5.29997 14.1836 8.71533C14.1836 12.1307 11.4154 14.8989 8 14.8989C4.58464 14.8989 1.81641 12.1307 1.81641 8.71533C1.81641 5.30127 4.58464 2.53174 8 2.53174Z" fill="#E5E4E7"/>
</g>
<defs>
<clipPath id="clip0_160_1663">
<rect width="20" height="20" fill="white" transform="translate(0 0.715332)"/>
</clipPath>
</defs>
</svg>