<svg width="25" height="26" viewBox="0 0 25 26" fill="none" xmlns="http://www.w3.org/2000/svg">
<g id="envelope">
<path id="Vector" d="M21.0938 2.34766H3.90625C2.61182 2.34766 1.5625 3.39697 1.5625 4.69141V21.8789C1.5625 23.1733 2.61182 24.2227 3.90625 24.2227H21.0938C22.3882 24.2227 23.4375 23.1733 23.4375 21.8789V4.69141C23.4375 3.39697 22.3882 2.34766 21.0938 2.34766ZM10.2596 13.5832C5.83149 10.3695 5.87661 10.3614 4.6875 9.43589V8.20703C4.6875 7.55981 5.21216 7.03516 5.85938 7.03516H19.1406C19.7878 7.03516 20.3125 7.55981 20.3125 8.20703V9.43589C19.1225 10.3621 19.1683 10.3697 14.7404 13.5833C14.2277 13.957 13.2076 14.8586 12.5 14.8476C11.7918 14.8583 10.7731 13.9576 10.2596 13.5832ZM20.3125 11.4187V18.3633C20.3125 19.0105 19.7878 19.5352 19.1406 19.5352H5.85938C5.21216 19.5352 4.6875 19.0105 4.6875 18.3633V11.4187C5.36904 11.9458 6.31489 12.6509 9.34097 14.8471C10.0325 15.3521 11.1952 16.4167 12.4999 16.4101C13.8127 16.4166 14.9919 15.3339 15.66 14.8464C18.6853 12.6508 19.631 11.9457 20.3125 11.4187Z" fill="#A4A1AA"/>
</g>
</svg>
