<svg width="25" height="26" viewBox="0 0 25 26" fill="none" xmlns="http://www.w3.org/2000/svg">
<g id="facebook">
<path id="Vector" d="M21.0938 2.34766H3.90625C3.28465 2.34766 2.68851 2.59459 2.24897 3.03412C1.80943 3.47366 1.5625 4.06981 1.5625 4.69141L1.5625 21.8789C1.5625 22.5005 1.80943 23.0966 2.24897 23.5362C2.68851 23.9757 3.28465 24.2227 3.90625 24.2227H10.6079V16.7856H7.53174V13.2852H10.6079V10.6172C10.6079 7.58252 12.4146 5.90625 15.1816 5.90625C16.5068 5.90625 17.8926 6.14258 17.8926 6.14258V9.12109H16.3657C14.8613 9.12109 14.3921 10.0547 14.3921 11.0122V13.2852H17.7505L17.2134 16.7856H14.3921V24.2227H21.0938C21.7154 24.2227 22.3115 23.9757 22.751 23.5362C23.1906 23.0966 23.4375 22.5005 23.4375 21.8789V4.69141C23.4375 4.06981 23.1906 3.47366 22.751 3.03412C22.3115 2.59459 21.7154 2.34766 21.0938 2.34766Z" fill="#A4A1AA"/>
</g>
</svg>
