<svg width="25" height="26" viewBox="0 0 25 26" fill="none" xmlns="http://www.w3.org/2000/svg">
<g id="instagram">
<path id="Vector" d="M12.5046 7.66968C9.39917 7.66968 6.89429 10.1746 6.89429 13.28C6.89429 16.3855 9.39917 18.8904 12.5046 18.8904C15.6101 18.8904 18.115 16.3855 18.115 13.28C18.115 10.1746 15.6101 7.66968 12.5046 7.66968ZM12.5046 16.9275C10.4978 16.9275 8.85718 15.2917 8.85718 13.28C8.85718 11.2683 10.4929 9.63257 12.5046 9.63257C14.5164 9.63257 16.1521 11.2683 16.1521 13.28C16.1521 15.2917 14.5115 16.9275 12.5046 16.9275ZM19.6531 7.44019C19.6531 8.16772 19.0671 8.74878 18.3445 8.74878C17.6169 8.74878 17.0359 8.16284 17.0359 7.44019C17.0359 6.71753 17.6218 6.13159 18.3445 6.13159C19.0671 6.13159 19.6531 6.71753 19.6531 7.44019ZM23.3689 8.76831C23.2859 7.01538 22.8855 5.46265 21.6013 4.18335C20.322 2.90405 18.7693 2.50366 17.0164 2.41577C15.2097 2.31323 9.79468 2.31323 7.98804 2.41577C6.23999 2.49878 4.68726 2.89917 3.40308 4.17847C2.1189 5.45776 1.72339 7.0105 1.6355 8.76343C1.53296 10.5701 1.53296 15.9851 1.6355 17.7917C1.71851 19.5447 2.1189 21.0974 3.40308 22.3767C4.68726 23.656 6.23511 24.0564 7.98804 24.1443C9.79468 24.2468 15.2097 24.2468 17.0164 24.1443C18.7693 24.0613 20.322 23.6609 21.6013 22.3767C22.8806 21.0974 23.281 19.5447 23.3689 17.7917C23.4714 15.9851 23.4714 10.575 23.3689 8.76831ZM21.0349 19.7302C20.6541 20.6873 19.9167 21.4246 18.9548 21.8103C17.5144 22.3816 14.0964 22.2498 12.5046 22.2498C10.9128 22.2498 7.48999 22.3767 6.05444 21.8103C5.09741 21.4294 4.36011 20.6921 3.97437 19.7302C3.40308 18.2898 3.53491 14.8718 3.53491 13.28C3.53491 11.6882 3.40796 8.26538 3.97437 6.82983C4.35522 5.8728 5.09253 5.1355 6.05444 4.74976C7.49487 4.17847 10.9128 4.3103 12.5046 4.3103C14.0964 4.3103 17.5193 4.18335 18.9548 4.74976C19.9119 5.13061 20.6492 5.86792 21.0349 6.82983C21.6062 8.27026 21.4744 11.6882 21.4744 13.28C21.4744 14.8718 21.6062 18.2947 21.0349 19.7302Z" fill="#A4A1AA"/>
</g>
</svg>
