<svg xmlns="http://www.w3.org/2000/svg" width="16" height="17" viewBox="0 0 16 17" fill="none">
  <path d="M12.5139 2.60293C11.9062 1.98967 11.1964 1.5143 10.4029 1.18904C8.01491 0.21388 5.29491 0.772406 3.47434 2.60546C2.26668 3.82482 1.6001 5.37724 1.6001 6.9825C1.6001 8.58524 2.26626 10.1393 3.47434 11.3574L4.13883 12.0212C5.47242 13.3497 6.62244 14.4966 7.60916 16.0909L7.99298 16.7153L8.37932 16.0909C9.36604 14.4966 10.5161 13.3497 11.8473 12.0227L12.5137 11.3553C15.0289 8.81976 15.0289 5.13872 12.5139 2.60293ZM9.97916 9.27134C8.8828 10.3783 7.10567 10.3783 6.00911 9.27134C4.91296 8.16819 4.91296 6.37661 6.00911 5.27135C7.10567 4.16819 8.8828 4.16819 9.97916 5.27135C11.073 6.37661 11.073 8.16777 9.97916 9.27134Z" fill="#E5E4E7"/>
</svg>